<svg xmlns="http://www.w3.org/2000/svg" id="c" viewBox="0 0 140 196"><defs><style>.d{fill:#fff;}</style></defs><polygon class="d" points="84.07 28.36 111.93 28.36 111.93 .5 84.07 .5 56.21 .5 28.36 .5 28.36 28.36 56.21 28.36 84.07 28.36"/><polygon class="d" points="111.93 28.36 111.93 56.21 111.93 84.07 111.93 111.93 111.93 139.79 111.93 167.64 139.79 167.64 139.79 139.79 139.79 111.93 139.79 84.07 139.79 56.21 139.79 28.36 111.93 28.36"/><polygon class="d" points="28.36 111.93 28.36 84.07 28.36 56.21 28.36 28.36 .5 28.36 .5 56.21 .5 84.07 .5 111.93 .5 139.79 .5 167.64 28.36 167.64 28.36 139.79 28.36 111.93"/><polygon class="d" points="56.21 167.64 28.36 167.64 28.36 195.5 56.21 195.5 84.07 195.5 111.93 195.5 111.93 167.64 84.07 167.64 56.21 167.64"/></svg>