<?xml version="1.0" encoding="UTF-8"?>
<svg id="Layer_1" data-name="Layer 1" xmlns="http://www.w3.org/2000/svg" version="1.1" viewBox="0 0 277.4 51.1">
  <defs>
    <style>
      .cls-1 {
        fill: #fff;
        stroke-width: 0px;
      }
    </style>
  </defs>
  <path class="cls-1" d="M77.9,46.1h3.9l6.9-24.9h.2l6.9,24.9h3.9l8.6-31.3h-3.8l-6.5,25.5h-.3l-6.7-25.5h-4.3l-6.7,25.5h-.3l-6.5-25.5h-3.8l8.6,31.3ZM110.8,46.1h3.6v-23.5h-3.6v23.5ZM112.6,18.7c1.4,0,2.6-1.1,2.6-2.4s-1.2-2.4-2.6-2.4-2.6,1.1-2.6,2.4,1.2,2.4,2.6,2.4ZM119.3,46.1h3.6v-8.8l2.5-2.3,8.8,11.1h4.6l-10.6-13.4,9.9-10h-4.5l-10.3,10.4h-.4V14.8h-3.6v31.3ZM140.9,46.1h3.6v-23.5h-3.6v23.5ZM142.8,18.7c1.4,0,2.6-1.1,2.6-2.4s-1.2-2.4-2.6-2.4-2.6,1.1-2.6,2.4,1.2,2.4,2.6,2.4ZM149.9,46.1h3.8v-14h16.7v14h3.8V14.8h-3.8v13.9h-16.7v-13.9h-3.8v31.3ZM189.1,46.5c6.4,0,10.6-4.8,10.6-12.1s-4.3-12.2-10.6-12.2-10.6,4.8-10.6,12.2,4.3,12.1,10.6,12.1ZM189.1,43.3c-4.8,0-7-4.2-7-8.9s2.2-8.9,7-8.9,7,4.2,7,8.9-2.2,8.9-7,8.9ZM218.3,36.5c0,4.4-3.4,6.4-6,6.4s-5.1-2.2-5.1-5.6v-14.7h-3.6v14.9c0,6,3.2,8.9,7.6,8.9s5.9-1.9,7-4.3h.2v4h3.6v-23.5h-3.6v13.9ZM243.4,27.9c-1.1-3.3-3.7-5.6-8.3-5.6s-8.6,2.8-8.6,6.8,1.9,5.4,6.2,6.4l3.9.9c2.4.5,3.5,1.7,3.5,3.3s-2.1,3.7-5.5,3.7-4.8-1.3-5.4-3.8l-3.4.9c.8,4,4.1,6.1,8.9,6.1s9.2-3,9.2-7-2-5.3-6.2-6.4l-3.5-.9c-2.8-.7-4-1.6-4-3.4s2.1-3.5,5-3.5,4.4,1.7,5.1,3.4l3.2-.9ZM257.3,46.5c4.8,0,8.2-2.4,9.3-5.9l-3.5-1c-.9,2.4-3,3.7-5.9,3.7-4.2,0-7.1-2.7-7.3-7.8h17v-1.5c0-8.7-5.2-11.7-10.1-11.7s-10.6,5-10.6,12.2,4.2,12,10.9,12ZM250,32.4c.2-3.6,2.8-6.9,6.9-6.9s6.4,2.9,6.4,6.9h-13.4Z"/>
  <path class="cls-1" d="M27.5,7.7l-4-3.7-4,3.7v6.1h8.1v-6.1Z"/>
  <path class="cls-1" d="M8.2,18l3.2,4.4,6,.6.8-8.1-6-.6-4,3.7Z"/>
  <path class="cls-1" d="M7.4,39l6.3,7.1h10.5v-14.2h-10.5l-6.3,7.1Z"/>
  <path class="cls-1" d="M34.1,22.1l-6.3-7.1h-8.4s-.9,8.4-.9,8.4l6.3,7.1,9.3-8.4Z"/>
  <path class="cls-1" d="M56.1,46.1l6.3-7.1-6.3-7.1h-10.5v14.2h10.5Z"/>
  <path class="cls-1" d="M45,30.5l6.3-7.1-.9-8.5h-8.4s-6.3,7.1-6.3,7.1l9.3,8.4Z"/>
  <path class="cls-1" d="M25.3,31.6v14.5h19.1v-14.5l-9.6-8.7-9.6,8.7Z"/>
</svg>