<svg width="214" height="67" viewBox="0 0 300 94" fill="none" xmlns="http://www.w3.org/2000/svg">
<g clip-path="url(#clip0_319_481)">
<path d="M87.4673 63H91.3764L98.2784 38.0795H98.5227L105.425 63H109.334L117.885 31.7273H114.037L107.501 57.1974H107.196L100.538 31.7273H96.2628L89.6051 57.1974H89.2997L82.7642 31.7273H78.9162L87.4673 63ZM120.395 63H123.998V39.5455H120.395V63ZM122.227 35.6364C123.632 35.6364 124.792 34.5369 124.792 33.1932C124.792 31.8494 123.632 30.75 122.227 30.75C120.822 30.75 119.662 31.8494 119.662 33.1932C119.662 34.5369 120.822 35.6364 122.227 35.6364ZM128.879 63H132.482V54.2198L135.002 51.8835L143.782 63H148.363L137.72 49.5625L147.63 39.5455H143.171L132.91 49.9901H132.482V31.7273H128.879V63ZM150.548 63H154.152V39.5455H150.548V63ZM152.381 35.6364C153.786 35.6364 154.946 34.5369 154.946 33.1932C154.946 31.8494 153.786 30.75 152.381 30.75C150.976 30.75 149.815 31.8494 149.815 33.1932C149.815 34.5369 150.976 35.6364 152.381 35.6364ZM159.521 63H163.308V49.0128H179.983V63H183.77V31.7273H179.983V45.6534H163.308V31.7273H159.521V63ZM198.671 63.4886C205.023 63.4886 209.299 58.6634 209.299 51.3949C209.299 44.0653 205.023 39.2401 198.671 39.2401C192.319 39.2401 188.043 44.0653 188.043 51.3949C188.043 58.6634 192.319 63.4886 198.671 63.4886ZM198.671 60.2514C193.846 60.2514 191.647 56.098 191.647 51.3949C191.647 46.6918 193.846 42.4773 198.671 42.4773C203.496 42.4773 205.695 46.6918 205.695 51.3949C205.695 56.098 203.496 60.2514 198.671 60.2514ZM227.861 53.4105C227.861 57.8082 224.502 59.8239 221.814 59.8239C218.821 59.8239 216.684 57.625 216.684 54.2045V39.5455H213.08V54.4489C213.08 60.4347 216.256 63.3054 220.654 63.3054C224.196 63.3054 226.517 61.4119 227.617 59.0298H227.861V63H231.465V39.5455H227.861V53.4105ZM252.959 44.7983C251.829 41.4695 249.294 39.2401 244.652 39.2401C239.705 39.2401 236.04 42.0497 236.04 46.0199C236.04 49.2571 237.964 51.4254 242.27 52.4332L246.179 53.3494C248.546 53.8991 249.661 55.0291 249.661 56.6477C249.661 58.6634 247.523 60.3125 244.163 60.3125C241.216 60.3125 239.369 59.0451 238.727 56.5256L235.307 57.3807C236.147 61.3661 239.43 63.4886 244.224 63.4886C249.676 63.4886 253.386 60.511 253.386 56.4645C253.386 53.1967 251.34 51.1353 247.156 50.1122L243.675 49.2571C240.896 48.57 239.644 47.6385 239.644 45.8366C239.644 43.821 241.781 42.3551 244.652 42.3551C247.798 42.3551 249.096 44.0959 249.722 45.7145L252.959 44.7983ZM266.925 63.4886C271.689 63.4886 275.171 61.1065 276.27 57.5639L272.788 56.5866C271.872 59.0298 269.75 60.2514 266.925 60.2514C262.695 60.2514 259.779 57.5181 259.611 52.4943H276.636V50.9673C276.636 42.233 271.445 39.2401 266.558 39.2401C260.206 39.2401 255.992 44.2486 255.992 51.456C255.992 58.6634 260.145 63.4886 266.925 63.4886ZM259.611 49.3793C259.855 45.7298 262.435 42.4773 266.558 42.4773C270.467 42.4773 272.972 45.4091 272.972 49.3793H259.611Z" fill="black"/>
<path d="M37.0939 24.6624L33.0589 21L29.0249 24.6624V30.792H37.0939V24.6624Z" fill="black"/>
<path d="M17.8125 34.8959L21.0086 39.3244L27.0452 39.9503L27.8698 31.8439L21.8332 31.2179L17.8125 34.8959Z" fill="black"/>
<path d="M17 55.9031L23.3086 63H33.8426V48.8051H23.3086L17 55.9031Z" fill="black"/>
<path d="M43.7227 39.0175L37.3987 31.925L28.9708 31.905L28.1099 40.3717L34.4338 47.4642L43.7227 39.0175Z" fill="black"/>
<path d="M65.6913 63L71.9999 55.9031L65.6913 48.8051H55.1572V63H65.6913Z" fill="black"/>
<path d="M54.5662 47.4642L60.8913 40.3717L60.0292 31.905L51.6013 31.925L45.2773 39.0175L54.5662 47.4642Z" fill="black"/>
<path d="M34.9434 48.4971V63H54.0562V48.4971L44.4998 39.8069L34.9434 48.4971Z" fill="black"/>
</g>
<defs>
<clipPath id="clip0_319_481">
<rect width="300" height="94" fill="white"/>
</clipPath>
</defs>
</svg>
